<svg width="256" height="257" viewBox="0 0 256 257" fill="none" xmlns="http://www.w3.org/2000/svg">
<path d="M256 256.016H0V0.015625H256V256.016ZM173.284 115.055L149.966 138.373C144.923 142.975 141.746 149.68 141.746 157.146C141.746 171.023 152.715 182.271 166.246 182.271C179.777 182.271 190.746 171.023 190.746 157.146C190.746 144.998 182.338 134.863 171.164 132.528L180.962 122.732L181.05 122.644L180.962 122.555L173.462 115.055L173.373 114.967L173.284 115.055ZM166.496 142.521C174.228 142.521 180.496 149.069 180.496 157.146C180.496 165.224 174.228 171.771 166.496 171.771C158.764 171.771 152.496 165.224 152.496 157.146C152.496 149.069 158.764 142.521 166.496 142.521ZM112.711 161.144L112.77 161.18L124.52 168.555L124.711 168.675V165.496C124.715 165.398 124.715 165.317 124.712 165.256C124.712 165.252 124.711 165.248 124.711 165.244V73.3242H112.711V161.144ZM165.828 149.299C165.788 149.274 165.734 149.272 165.692 149.3C165.665 149.318 165.648 149.345 165.642 149.374C163.198 151.55 161.686 152.452 158.873 153.752L158.754 153.807L158.814 153.923L159.64 155.505L159.689 155.601L159.791 155.564L161.021 155.136V162.328L160.552 162.778L160.484 162.843L160.526 162.925L161.414 164.689L161.459 164.778L161.556 164.755L166.439 163.538L166.534 163.514V162.318L172.199 164.446L172.323 164.492L172.362 164.366L172.87 162.724L172.904 162.612L172.796 162.57L170.564 161.691L172.56 160.544L172.685 160.472L172.595 160.357L171.607 159.114V154.845L173.271 155.562L173.387 155.611L173.437 155.495L174.134 153.853L174.108 153.841C174.114 153.831 174.12 153.822 174.123 153.811C174.138 153.743 174.095 153.676 174.027 153.661C174.023 153.66 174.016 153.661 174.006 153.66C170.96 152.243 169.447 151.325 167.382 149.334L167.346 149.299H165.828ZM161.901 164.186L161.898 164.185C161.896 164.183 161.893 164.179 161.889 164.173C161.893 164.177 161.897 164.181 161.901 164.186ZM163.278 164.066C163.28 164.062 163.282 164.057 163.283 164.053C163.372 164.037 163.445 164.021 163.506 164.004C163.599 163.978 163.65 163.961 163.699 163.956C163.726 163.953 163.752 163.947 163.777 163.942L163.278 164.066ZM164.33 163.562C164.329 163.564 164.327 163.569 164.325 163.573C164.284 163.58 164.241 163.591 164.197 163.599C164.225 163.59 164.25 163.581 164.276 163.574C164.295 163.569 164.313 163.565 164.33 163.561V163.562ZM170.655 163.223C170.633 163.218 170.61 163.212 170.582 163.205C170.553 163.198 170.517 163.187 170.479 163.178C170.522 163.186 170.576 163.2 170.655 163.223ZM166.284 162.399C166.282 162.398 166.28 162.397 166.278 162.396C166.28 162.393 166.282 162.39 166.284 162.387V162.399ZM164.992 162.224C164.917 162.229 164.854 162.231 164.794 162.235C164.812 162.233 164.824 162.232 164.836 162.231C164.894 162.227 164.949 162.219 164.998 162.213C164.996 162.217 164.994 162.221 164.992 162.224ZM164.014 160.169L163.619 161.036L163.572 161.14L163.671 161.196L164.649 161.76L163.287 162.03V160.126L164.014 160.169ZM165.174 161.772L165.158 161.764C165.164 161.762 165.171 161.759 165.177 161.757C165.176 161.762 165.175 161.767 165.174 161.772ZM167.115 161.153C167.117 161.154 167.118 161.156 167.119 161.156C167.1 161.151 167.082 161.143 167.062 161.138L167.115 161.153ZM169.469 160.118L168.221 160.947L166.155 160.118H169.469ZM166.646 160.891C166.643 160.893 166.64 160.896 166.637 160.898C166.635 160.895 166.635 160.891 166.634 160.888C166.638 160.889 166.642 160.89 166.646 160.891ZM167.057 160.749C167.052 160.749 167.048 160.749 167.044 160.749L167.045 160.744L167.057 160.749ZM170.111 160.002L170.088 160.007L170.116 159.988C170.115 159.993 170.113 159.997 170.111 160.002ZM164.143 159.911C164.143 159.917 164.144 159.922 164.145 159.927L163.956 159.915C163.957 159.911 163.958 159.907 163.958 159.903C164.013 159.908 164.075 159.914 164.143 159.911ZM171.817 159.781C171.812 159.779 171.806 159.776 171.801 159.773C171.798 159.764 171.795 159.756 171.793 159.751L171.817 159.781ZM162.825 158.479C162.822 158.48 162.817 158.483 162.812 158.485C162.812 158.482 162.813 158.479 162.812 158.476C162.817 158.476 162.821 158.478 162.825 158.479ZM169.254 157.874V158.354H163.289V157.874H169.254ZM163.549 157.624H163.325C163.332 157.617 163.337 157.61 163.342 157.602C163.404 157.61 163.472 157.618 163.549 157.624ZM168.921 156.414V156.416C168.858 156.415 168.798 156.415 168.739 156.414H168.921ZM169.254 155.684V156.164H163.289V155.684H169.254ZM73.207 73.3301C66.9393 73.3301 61.8459 78.3443 61.7129 84.5801H61.707V91.5801H61.832L61.707 91.5859C61.849 94.5552 62.1447 97.1936 63.8105 99.5518C64.7934 100.943 66.2499 102.227 68.417 103.43C68.4209 103.432 68.423 103.436 68.4248 103.437C68.4276 103.438 68.4309 103.438 68.4336 103.439C69.9326 104.27 71.7703 105.062 74.0283 105.818L74.0186 105.843L88.1963 112.007L87.7441 111.909C87.9489 111.954 88.1492 112.008 88.3447 112.071L89.5186 112.582C91.1988 113.522 92.3633 115.166 92.707 117.038V119.353C92.6902 119.445 92.6724 119.539 92.6514 119.632L92.707 119.385V134.461L77.5078 125.329L77.5049 125.332C75.0971 123.87 74.337 123.157 73.7129 122.043V115.827H61.7129V122.076H61.71C61.6765 125.59 62.4746 127.96 64.1201 129.956C65.7586 131.944 68.2314 133.552 71.5195 135.559L71.5303 135.54L86.0488 144.265L92.6592 148.396L92.6611 148.384C92.6626 148.386 92.6635 148.388 92.665 148.39L92.6611 148.397L94.3936 149.505C94.4621 149.56 94.5364 149.608 94.6162 149.647L104.494 155.963L104.686 156.086L104.729 148.359L104.712 148.358C104.716 148.334 104.712 148.314 104.707 148.3V112.048L104.73 112.047L104.713 111.797C104.711 111.776 104.709 111.756 104.707 111.735V111.33H104.668C104.251 107.789 101.963 104.882 98.874 103.536L98.8848 103.514L78.8867 94.8184L78.8877 94.8174C78.8792 94.8142 78.8708 94.8108 78.8623 94.8076L78.8242 94.791L78.8232 94.792C75.3641 93.4771 74.3619 92.7651 73.7061 91.5801H73.707V87.0859C73.707 85.8439 74.7133 84.837 75.9551 84.8359V84.833H89.7051V84.8359H89.957C91.1866 84.8359 92.1842 85.8223 92.2051 87.0469V91.083H104.455V84.833C104.455 78.4817 99.3064 73.333 92.9551 73.333H73.957V73.3301H73.207ZM162.572 155.837C162.574 155.845 162.576 155.854 162.578 155.862C162.573 155.859 162.569 155.853 162.564 155.85C162.563 155.848 162.56 155.847 162.559 155.846C162.56 155.829 162.562 155.812 162.563 155.797C162.566 155.81 162.569 155.824 162.572 155.837ZM160.564 155.029C160.573 155.025 160.582 155.022 160.59 155.018C160.668 154.972 160.77 154.944 160.865 154.925L160.564 155.029ZM173.131 154.979L173.13 154.98C173.127 154.979 173.124 154.978 173.121 154.977C173.127 154.972 173.132 154.966 173.138 154.962C173.135 154.967 173.133 154.973 173.131 154.979ZM173.692 154.249L173.56 154.562C173.568 154.527 173.575 154.492 173.585 154.461C173.601 154.41 173.614 154.381 173.621 154.371C173.646 154.335 173.664 154.289 173.681 154.247C173.684 154.248 173.688 154.248 173.692 154.249ZM159.166 154.046V154.048C159.165 154.048 159.163 154.047 159.161 154.047L159.16 154.045C159.162 154.045 159.164 154.045 159.166 154.046ZM169.436 153.794H167.481V152.516H165.329V153.794H163.501L166.468 151.698L169.436 153.794ZM169.772 153.72C169.783 153.724 169.793 153.728 169.802 153.731C169.81 153.739 169.817 153.745 169.823 153.751C169.826 153.753 169.828 153.755 169.83 153.757C169.834 153.763 169.839 153.769 169.844 153.775L169.747 153.707C169.755 153.711 169.764 153.716 169.772 153.72ZM169.816 153.733C169.811 153.726 169.805 153.719 169.8 153.711C169.795 153.703 169.79 153.694 169.786 153.687V153.686C169.795 153.703 169.807 153.718 169.816 153.733ZM171.9 152.907C171.894 152.905 171.888 152.903 171.882 152.901C171.88 152.9 171.879 152.897 171.878 152.896C171.885 152.899 171.893 152.903 171.9 152.907ZM168.535 152.836C168.55 152.854 168.568 152.869 168.585 152.887L168.491 152.82C168.506 152.826 168.52 152.832 168.535 152.836ZM170.771 152.279C170.767 152.278 170.763 152.276 170.76 152.274C170.745 152.268 170.731 152.261 170.719 152.256C170.715 152.252 170.712 152.246 170.709 152.242C170.73 152.255 170.751 152.267 170.771 152.279ZM170.75 152.273C170.751 152.274 170.753 152.276 170.756 152.277L170.754 152.276L170.74 152.269C170.742 152.269 170.746 152.271 170.75 152.273ZM132.094 128.502L132.309 128.28L144.057 116.157L151.009 109.285L159.754 118.28L159.844 118.373L159.934 118.28L167.684 110.28L167.77 110.192L167.683 110.104L158.982 101.404L187.057 73.6572L187.273 73.4434H169.667L169.631 73.4795L167.91 75.1914C167.62 75.4288 167.351 75.7059 167.105 75.9922L143.969 99.0176V73.3184H132.094V128.502ZM132.624 127.594L132.616 127.602C132.617 127.598 132.62 127.595 132.621 127.592C132.622 127.593 132.623 127.593 132.624 127.594ZM143.088 116.797C143.087 116.795 143.086 116.793 143.085 116.791C143.109 116.769 143.133 116.748 143.156 116.728L143.088 116.797ZM73.9551 84.833H73.707V84.8301H73.9551V84.833Z" fill="black"/>
</svg>
