<svg width="256" height="218" viewBox="0 0 256 218" fill="none" xmlns="http://www.w3.org/2000/svg">
<path d="M221.694 83.668L236.579 98.5508L236.756 98.7275L236.579 98.9053L217.14 118.342C239.313 122.978 255.996 143.089 255.996 167.195C255.996 194.731 234.227 217.054 207.374 217.054C180.521 217.054 158.752 194.731 158.752 167.195C158.752 152.404 165.035 139.12 175.011 129.989L199.51 105.492L199.675 105.327L199.678 105.329L200.007 105.001L221.341 83.668L221.518 83.4912L221.694 83.668ZM207.872 138.172C192.527 138.172 180.088 151.166 180.088 167.194C180.088 183.223 192.527 196.217 207.872 196.217C223.217 196.217 235.656 183.223 235.656 167.194C235.656 151.166 223.217 138.172 207.872 138.172ZM125.079 174.867H125.076V183.149C125.076 183.154 125.077 183.159 125.077 183.163C125.083 183.285 125.084 183.448 125.076 183.646V189.496H125.074V189.954L124.691 189.714L101.373 175.079L101.256 175.006V173.377H101.264V0.732422H125.079V174.867ZM206.14 151.288H209.195L209.269 151.358C213.411 155.352 216.441 157.188 222.569 160.036C222.576 160.037 222.582 160.036 222.586 160.037C222.721 160.067 222.806 160.199 222.777 160.334C222.773 160.354 222.765 160.372 222.757 160.39L222.772 160.396L221.378 163.682L221.279 163.912L221.049 163.813L217.72 162.381V170.919L219.694 173.405L219.875 173.633L219.623 173.777L215.634 176.073L220.098 177.83L220.313 177.915L220.245 178.137L219.23 181.422L219.152 181.675L218.903 181.582L207.572 177.328V179.718L207.383 179.766L197.616 182.199L197.422 182.247L197.332 182.068L195.557 178.54L195.474 178.375L195.607 178.247L196.545 177.348V162.962L194.087 163.819L193.883 163.891L193.782 163.699L192.134 160.536L192.013 160.304L192.251 160.193C197.9 157.583 200.925 155.777 205.847 151.387C205.864 151.359 205.887 151.334 205.916 151.314C205.985 151.269 206.068 151.262 206.14 151.288ZM198.329 181.082L198.331 181.083C198.328 181.08 198.324 181.076 198.321 181.073C198.325 181.076 198.327 181.081 198.329 181.082ZM203.083 179.863C203.04 179.875 202.999 179.889 202.955 179.902C203.032 179.888 203.109 179.873 203.183 179.86C203.187 179.851 203.189 179.842 203.191 179.837C203.156 179.846 203.12 179.853 203.083 179.863ZM215.695 179.124C215.781 179.145 215.841 179.161 215.91 179.178C215.721 179.121 215.594 179.092 215.497 179.072C215.571 179.091 215.639 179.11 215.695 179.124ZM204.203 177.177C204.166 177.18 204.132 177.181 204.052 177.19C204.192 177.182 204.336 177.175 204.516 177.163C204.519 177.157 204.523 177.149 204.527 177.141C204.43 177.153 204.318 177.168 204.203 177.177ZM201.092 176.772L203.817 176.231L201.858 175.104L201.661 174.99L201.756 174.783L202.546 173.05L201.092 172.963V176.772ZM204.842 176.243L204.878 176.265C204.88 176.253 204.882 176.241 204.885 176.229C204.87 176.234 204.856 176.239 204.842 176.243ZM210.959 174.605L213.459 172.947H206.829L210.959 174.605ZM207.806 174.509C207.811 174.505 207.816 174.5 207.821 174.496C207.814 174.494 207.806 174.492 207.799 174.49C207.801 174.496 207.803 174.503 207.806 174.509ZM208.621 174.21C208.625 174.21 208.628 174.21 208.632 174.21L208.621 174.205V174.21ZM214.683 172.733L214.753 172.715C214.757 172.702 214.763 172.689 214.768 172.677L214.683 172.733ZM202.448 172.542L202.816 172.564C202.816 172.556 202.815 172.546 202.815 172.536C202.682 172.541 202.56 172.535 202.45 172.525C202.45 172.531 202.449 172.537 202.448 172.542ZM218.132 172.257C218.138 172.26 218.145 172.263 218.151 172.267L218.122 172.23C218.125 172.238 218.128 172.247 218.132 172.257ZM200.155 169.685C200.162 169.681 200.17 169.678 200.176 169.675C200.169 169.674 200.162 169.672 200.155 169.671C200.155 169.675 200.155 169.68 200.155 169.685ZM201.094 169.407H213.023V168.447H201.094V169.407ZM201.197 167.947H201.443C201.362 167.939 201.286 167.928 201.215 167.918C201.209 167.928 201.204 167.938 201.197 167.947ZM210.954 165.529C211.311 165.537 211.798 165.542 212.365 165.549C212.364 165.542 212.365 165.534 212.364 165.527H210.881C210.905 165.528 210.929 165.529 210.954 165.529ZM213.523 165.39C213.525 165.392 213.525 165.394 213.526 165.396C213.529 165.249 213.528 165.07 213.523 164.909V165.39ZM201.094 165.027H213.023V164.067H201.094V165.027ZM62.0762 0.737305C74.6796 0.737305 84.8971 10.9542 84.8975 23.5576H84.9053V35.96H60.5938V23.5586H60.582V27.8252C60.4627 25.4707 58.5337 23.595 56.1582 23.5586H28.3359V23.5615C25.8917 23.5792 23.9121 25.5448 23.8711 27.9834V23.5596H23.8643V36.9492H23.8535C25.1552 39.3058 27.1431 40.7195 34.0234 43.334L34.0254 43.332L34.0791 43.3555C34.1002 43.3635 34.1214 43.3719 34.1426 43.3799L34.1406 43.3818L73.8369 60.6416L73.7969 60.7324C79.899 63.4179 84.4244 69.1556 85.3018 76.1445H85.3916V77.0264C85.397 77.0942 85.4034 77.1624 85.4082 77.2305L85.4326 77.5732L85.3916 77.5752V149.568H85.374C85.3764 149.588 85.3763 149.609 85.373 149.633L85.4229 149.634L85.3369 164.971L84.9541 164.727L65.4629 152.264C65.2189 152.158 64.9974 152.014 64.8027 151.842L61.4707 149.711L61.4775 149.699L48.3633 141.505L48.3662 141.501L19.5371 124.181L19.5107 124.225C12.9849 120.243 8.07633 117.052 4.82422 113.106C1.55816 109.144 -0.025441 104.44 0.0410156 97.4678H0.046875V85.0752H23.8623V97.4072C25.1012 99.6166 26.6133 101.031 31.3984 103.936L31.4072 103.922L61.5762 122.048V92.166L61.4736 92.6201C61.5117 92.4515 61.545 92.2827 61.5762 92.1143V87.4326C60.8912 83.7691 58.6221 80.5482 55.3496 78.6826L52.8398 77.5908C52.4761 77.4768 52.1043 77.377 51.7246 77.2939L52.5869 77.4814L24.4883 65.2646L24.5117 65.21C20.0205 63.7061 16.364 62.1355 13.3848 60.4844C13.3811 60.4827 13.3767 60.4824 13.373 60.4805C13.3672 60.4774 13.3544 60.4704 13.3389 60.459C9.05071 58.0758 6.16989 55.5258 4.22266 52.7695C0.916336 48.0894 0.330661 42.8533 0.0488281 36.9609L0.272461 36.9502V36.9492H0.0488281V23.0586H0.0556641C0.322013 10.6861 10.4338 0.73831 22.8701 0.738281H24.3604V23.5576H24.3711V0.737305H62.0762ZM199.653 164.408C199.656 164.41 199.658 164.411 199.66 164.413C199.67 164.421 199.68 164.43 199.689 164.438C199.685 164.421 199.681 164.404 199.677 164.388C199.671 164.363 199.667 164.337 199.661 164.312C199.659 164.343 199.656 164.375 199.653 164.408ZM198.086 163.508C198.111 163.516 198.134 163.522 198.142 163.524C198.141 163.524 198.137 163.523 198.133 163.521C198.129 163.52 198.121 163.518 198.112 163.516C198.109 163.515 198.1 163.511 198.087 163.507L198.084 163.506L198.086 163.508ZM220.776 162.665C220.782 162.667 220.788 162.668 220.793 162.671H220.794C220.799 162.66 220.803 162.65 220.808 162.64C220.797 162.648 220.787 162.657 220.776 162.665ZM221.773 161.457C221.76 161.477 221.734 161.535 221.702 161.636C221.702 161.637 221.702 161.639 221.701 161.641L221.797 161.414C221.789 161.428 221.783 161.444 221.773 161.457ZM203.15 160.791C203.166 160.79 203.181 160.789 203.196 160.788H203.15V160.791ZM201.505 160.288H205.16V157.733H209.465V160.288H213.374L207.438 156.099L201.505 160.288ZM214.227 160.277C214.213 160.259 214.198 160.241 214.185 160.222C214.182 160.22 214.18 160.218 214.178 160.216C214.166 160.205 214.152 160.192 214.137 160.179C214.119 160.172 214.098 160.164 214.076 160.154C214.048 160.142 214.022 160.128 213.996 160.115L214.227 160.277ZM218.299 158.515C218.321 158.522 218.343 158.53 218.365 158.538C218.338 158.524 218.311 158.51 218.284 158.496C218.289 158.502 218.294 158.508 218.299 158.515ZM211.691 158.489C211.66 158.456 211.63 158.421 211.602 158.388C211.568 158.379 211.536 158.367 211.504 158.355L211.691 158.489ZM215.974 157.229C215.997 157.24 216.024 157.251 216.051 157.263C216.068 157.27 216.088 157.278 216.109 157.287C216.053 157.254 215.996 157.221 215.94 157.188C215.952 157.201 215.963 157.215 215.974 157.229ZM201.15 155.827C201.158 155.823 201.166 155.82 201.173 155.816C201.173 155.815 201.173 155.813 201.174 155.812C201.166 155.817 201.158 155.822 201.15 155.827ZM163.263 51.7236L209 6.20996C209.576 5.51969 210.22 4.84541 210.926 4.29395L214.188 1.04785L214.262 0.974609H249.208L248.774 1.40234L193.062 56.4609L210.329 73.7266L210.503 73.9004L210.332 74.0771L210.329 74.0801L195.263 89.6309C195.252 89.6433 195.241 89.6555 195.229 89.666L194.949 89.9561L194.77 90.1406L194.59 89.9561L177.233 72.1045L163.438 85.7412L140.123 109.799L139.693 110.241V0.726562H163.263V51.7236ZM23.6543 36.9521L23.6602 36.9492H23.6504C23.6516 36.9503 23.6531 36.951 23.6543 36.9521Z" fill="black"/>
</svg>
