<svg width="256" height="218" viewBox="0 0 256 218" fill="none" xmlns="http://www.w3.org/2000/svg">
<path d="M221.702 83.668L236.587 98.5518L236.764 98.7285L236.587 98.9053L217.147 118.342C239.32 122.978 256.004 143.089 256.004 167.195C256.004 194.732 234.235 217.055 207.382 217.055C180.529 217.055 158.76 194.732 158.76 167.195C158.76 152.383 165.061 139.081 175.062 129.949L199.518 105.496L199.683 105.331H199.684L200.015 105.001L221.349 83.668L221.525 83.4912L221.702 83.668ZM207.88 138.172C192.535 138.172 180.096 151.166 180.096 167.194C180.096 183.223 192.535 196.217 207.88 196.217C223.225 196.217 235.664 183.223 235.664 167.194C235.664 151.166 223.225 138.172 207.88 138.172ZM125.087 174.867H125.084V183.149C125.084 183.154 125.085 183.159 125.085 183.163C125.091 183.285 125.091 183.448 125.084 183.645V189.496H125.082V189.954L124.699 189.714L101.381 175.079L101.264 175.006V173.377H101.271V0.732422H125.087V174.867ZM209.276 151.358C213.436 155.369 216.473 157.203 222.652 160.071L222.65 160.073C222.751 160.123 222.81 160.235 222.785 160.35C222.782 160.364 222.776 160.378 222.771 160.392L222.78 160.396L221.386 163.682L221.287 163.913L221.057 163.813L217.728 162.381V170.919L219.702 173.405L219.883 173.633L219.631 173.777L215.642 176.073L220.105 177.83L220.321 177.915L220.253 178.137L219.238 181.422L219.16 181.676L218.911 181.582L207.58 177.328V179.719L207.391 179.766L197.624 182.199L197.43 182.247L197.34 182.068L195.564 178.54L195.481 178.375L195.615 178.247L196.553 177.348V162.962L194.095 163.819L193.891 163.891L193.79 163.699L192.142 160.536L192.021 160.304L192.259 160.193C197.923 157.576 200.95 155.768 205.896 151.352C205.904 151.344 205.914 151.337 205.924 151.33C205.965 151.302 206.012 151.289 206.059 151.288H209.203L209.276 151.358ZM198.337 181.098L198.339 181.099C198.336 181.095 198.332 181.092 198.329 181.089C198.333 181.092 198.334 181.096 198.337 181.098ZM203.091 179.879C203.048 179.89 203.007 179.904 202.963 179.918C203.04 179.904 203.117 179.889 203.19 179.876C203.195 179.867 203.196 179.858 203.199 179.853C203.164 179.861 203.128 179.869 203.091 179.879ZM215.703 179.14C215.789 179.16 215.849 179.177 215.918 179.193C215.729 179.136 215.602 179.107 215.505 179.088C215.579 179.106 215.646 179.126 215.703 179.14ZM204.211 177.192C204.174 177.195 204.14 177.197 204.06 177.206C204.2 177.198 204.344 177.191 204.523 177.179C204.527 177.172 204.53 177.164 204.535 177.156C204.438 177.168 204.326 177.183 204.211 177.192ZM201.1 176.784L203.825 176.243L201.866 175.115L201.669 175.002L201.764 174.795L202.554 173.062L201.1 172.975V176.784ZM204.854 176.258L204.886 176.276C204.888 176.266 204.89 176.255 204.893 176.244C204.879 176.249 204.866 176.254 204.854 176.258ZM210.967 174.617L213.467 172.959H206.837L210.967 174.617ZM207.813 174.524C207.819 174.52 207.824 174.516 207.829 174.512C207.822 174.51 207.814 174.508 207.807 174.506C207.809 174.512 207.811 174.518 207.813 174.524ZM208.629 174.226C208.636 174.225 208.643 174.227 208.65 174.227L208.629 174.218V174.226ZM214.681 172.751L214.761 172.73C214.766 172.716 214.772 172.702 214.777 172.688L214.681 172.751ZM202.457 172.554L202.824 172.576C202.824 172.568 202.823 172.56 202.823 172.552C202.69 172.556 202.568 172.551 202.458 172.541C202.458 172.545 202.458 172.55 202.457 172.554ZM218.14 172.272C218.153 172.278 218.165 172.285 218.179 172.292L218.121 172.22C218.123 172.225 218.13 172.244 218.14 172.272ZM212.354 169.919C212.355 169.918 212.356 169.916 212.356 169.915H212.319C212.331 169.916 212.343 169.918 212.354 169.919ZM200.163 169.7C200.17 169.696 200.178 169.693 200.184 169.69C200.177 169.689 200.17 169.688 200.163 169.687C200.163 169.691 200.163 169.696 200.163 169.7ZM201.102 169.415H213.031V168.455H201.102V169.415ZM201.21 167.955H201.377C201.323 167.949 201.272 167.941 201.223 167.934C201.218 167.941 201.215 167.948 201.21 167.955ZM210.962 165.545C211.319 165.552 211.806 165.557 212.374 165.564C212.372 165.555 212.372 165.545 212.371 165.535H210.594C210.703 165.538 210.823 165.542 210.962 165.545ZM213.531 165.401C213.532 165.404 213.533 165.406 213.534 165.408C213.537 165.262 213.536 165.084 213.531 164.925V165.401ZM201.102 165.035H213.031V164.075H201.102V165.035ZM62.084 0.737305C74.6875 0.737305 84.9048 10.9542 84.9053 23.5576H84.9131V35.96H60.6016V23.5586H60.5898V27.8252C60.4706 25.4707 58.5415 23.595 56.166 23.5586H28.3438V23.5615C25.8995 23.5792 23.9199 25.5448 23.8789 27.9834V23.5596H23.8721V36.9502H23.8623C25.164 39.3061 27.152 40.7199 34.0312 43.334L34.0332 43.332L34.0869 43.3555C34.108 43.3635 34.1292 43.3719 34.1504 43.3799L34.1484 43.3818L73.8447 60.6416L73.8047 60.7324C79.9068 63.4179 84.4322 69.1556 85.3096 76.1445H85.3994V77.0264C85.4049 77.0942 85.4113 77.1624 85.416 77.2305L85.4404 77.5742L85.3994 77.5762V149.569H85.3828C85.3851 149.588 85.384 149.61 85.3809 149.633L85.4307 149.634L85.3447 164.971L84.9619 164.727L65.4707 152.264C65.2267 152.158 65.0052 152.014 64.8105 151.842L61.4785 149.711L61.4854 149.699L48.3711 141.505L48.374 141.501L19.5469 124.182L19.5186 124.229C12.9927 120.248 8.08414 117.056 4.83203 113.11C1.56598 109.148 -0.0176284 104.444 0.0488281 97.4717H0.0546875V85.0752H23.8701V97.4111C25.1089 99.6202 26.6207 101.035 31.4043 103.938L31.415 103.922L61.584 122.048V92.166L61.4814 92.6201C61.5194 92.4521 61.5529 92.284 61.584 92.1162V87.4326C60.899 83.7691 58.6299 80.5482 55.3574 78.6826L52.8477 77.5908C52.4839 77.4768 52.1121 77.377 51.7324 77.2939L52.5947 77.4814L24.4961 65.2646L24.5195 65.21C20.0283 63.7061 16.3719 62.1355 13.3926 60.4844C13.389 60.4827 13.3845 60.4824 13.3809 60.4805C13.375 60.4774 13.3622 60.4704 13.3467 60.459C9.05851 58.0758 6.17769 55.5258 4.23047 52.7695C0.924149 48.0894 0.338473 42.8534 0.0566406 36.9609L0.280273 36.9502H0.0566406V23.0586H0.0634766C0.329879 10.6861 10.4416 0.73831 22.8779 0.738281H24.3682V23.5576H24.3789V0.737305H62.084ZM199.661 164.424C199.663 164.425 199.666 164.427 199.668 164.429C199.678 164.436 199.687 164.445 199.697 164.453C199.693 164.436 199.688 164.42 199.685 164.403C199.679 164.378 199.674 164.353 199.669 164.328C199.667 164.359 199.664 164.391 199.661 164.424ZM198.094 163.523C198.119 163.532 198.142 163.538 198.149 163.54C198.148 163.54 198.145 163.538 198.141 163.537C198.136 163.536 198.129 163.534 198.12 163.531C198.117 163.53 198.108 163.526 198.095 163.522L198.092 163.521L198.094 163.523ZM220.784 162.681C220.79 162.683 220.795 162.684 220.801 162.687H220.802C220.807 162.676 220.811 162.665 220.815 162.655C220.805 162.664 220.795 162.673 220.784 162.681ZM203.158 160.807C203.201 160.804 203.246 160.8 203.291 160.797C203.325 160.795 203.36 160.794 203.395 160.792H203.159C203.159 160.797 203.158 160.802 203.158 160.807ZM201.513 160.292H205.168V157.737H209.473V160.292H213.382L207.446 156.103L201.513 160.292ZM214.216 160.269C214.208 160.258 214.2 160.248 214.192 160.237C214.19 160.235 214.188 160.234 214.186 160.231C214.174 160.221 214.16 160.208 214.145 160.194C214.127 160.187 214.106 160.179 214.084 160.17C214.074 160.166 214.065 160.161 214.056 160.156L214.216 160.269ZM218.307 158.53C218.413 158.565 218.516 158.613 218.612 158.677C218.628 158.684 218.646 158.692 218.665 158.7C218.688 158.709 218.708 158.716 218.726 158.724C218.738 158.729 218.75 158.734 218.76 158.738C218.761 158.739 218.762 158.739 218.764 158.739C218.597 158.654 218.432 158.57 218.271 158.485C218.282 158.499 218.294 158.514 218.307 158.53ZM211.673 158.474C211.651 158.45 211.629 158.427 211.609 158.403C211.586 158.397 211.563 158.388 211.54 158.381L211.673 158.474ZM215.983 157.245C216.006 157.255 216.032 157.267 216.059 157.278C216.099 157.296 216.153 157.318 216.215 157.345C216.115 157.286 216.016 157.228 215.918 157.169C215.941 157.193 215.963 157.219 215.983 157.245ZM201.058 155.897C201.099 155.875 201.141 155.854 201.181 155.832C201.183 155.824 201.185 155.816 201.188 155.808C201.144 155.838 201.101 155.867 201.058 155.897ZM163.271 51.7236L209.008 6.20996C209.584 5.51969 210.228 4.84541 210.934 4.29395L214.196 1.04785L214.27 0.974609H249.216L248.782 1.40234L193.07 56.4609L210.337 73.7266L210.511 73.9004L210.34 74.0771L210.337 74.0801L195.271 89.6309C195.26 89.6433 195.249 89.6555 195.237 89.666L194.957 89.9561L194.777 90.1406L194.598 89.9561L177.241 72.1045L163.445 85.7412L140.131 109.799L139.701 110.242V0.726562H163.271V51.7236ZM23.6621 36.9521L23.666 36.9502H23.6602L23.6621 36.9521Z" fill="white"/>
</svg>
