<svg width="256" height="256" viewBox="0 0 256 256" fill="none" xmlns="http://www.w3.org/2000/svg">
<path d="M256 256H0V0H256V256ZM173.288 115.035L149.974 138.35C144.931 142.952 141.754 149.656 141.754 157.123C141.754 170.999 152.723 182.248 166.254 182.248C179.785 182.248 190.754 170.999 190.754 157.123C190.754 144.974 182.346 134.84 171.172 132.505L180.966 122.713L181.054 122.624L180.966 122.535L173.466 115.035L173.377 114.947L173.288 115.035ZM166.504 142.498C174.236 142.498 180.504 149.046 180.504 157.123C180.504 165.2 174.236 171.748 166.504 171.748C158.772 171.748 152.504 165.2 152.504 157.123C152.504 149.046 158.772 142.498 166.504 142.498ZM112.789 161.05L112.848 161.086L124.598 168.461L124.789 168.581V165.402C124.793 165.304 124.793 165.223 124.79 165.162C124.79 165.158 124.789 165.154 124.789 165.15V73.2305H112.789V161.05ZM165.677 149.276C165.67 149.281 165.665 149.287 165.66 149.292C163.188 151.5 161.674 152.404 158.842 153.713L158.723 153.768L158.783 153.884L159.608 155.466L159.658 155.562L159.76 155.525L160.989 155.097V162.289L160.521 162.739L160.453 162.804L160.495 162.886L161.383 164.65L161.428 164.739L161.524 164.716L166.408 163.499L166.503 163.475V162.279L172.168 164.407L172.292 164.453L172.331 164.327L172.839 162.685L172.873 162.573L172.765 162.531L170.533 161.652L172.528 160.505L172.653 160.433L172.563 160.318L171.576 159.075V154.806L173.24 155.522L173.355 155.572L173.405 155.456L174.103 153.813L174.096 153.811C174.099 153.803 174.105 153.796 174.107 153.787C174.122 153.72 174.079 153.652 174.012 153.638L174.01 153.637C170.94 152.21 169.424 151.294 167.351 149.295L167.314 149.26H165.775C165.743 149.252 165.707 149.256 165.677 149.276ZM161.886 164.162L161.883 164.161C161.88 164.16 161.877 164.156 161.873 164.149C161.877 164.154 161.882 164.158 161.886 164.162ZM164.31 163.55C164.268 163.557 164.225 163.567 164.182 163.575C164.21 163.566 164.235 163.558 164.261 163.551C164.279 163.546 164.297 163.541 164.314 163.537C164.313 163.54 164.312 163.545 164.31 163.55ZM170.64 163.199C170.618 163.194 170.595 163.188 170.566 163.182C170.537 163.175 170.501 163.164 170.463 163.154C170.506 163.163 170.561 163.176 170.64 163.199ZM164.977 162.2C164.901 162.205 164.838 162.208 164.778 162.212C164.796 162.21 164.808 162.209 164.82 162.208C164.878 162.203 164.934 162.196 164.982 162.189C164.98 162.193 164.978 162.197 164.977 162.2ZM163.994 160.142L163.6 161.009L163.553 161.112L163.651 161.169L164.63 161.732L163.268 162.003V160.099L163.994 160.142ZM165.158 161.748L165.144 161.739C165.149 161.737 165.155 161.736 165.161 161.733C165.16 161.738 165.159 161.743 165.158 161.748ZM167.1 161.13C167.101 161.13 167.102 161.132 167.104 161.133C167.085 161.127 167.067 161.119 167.047 161.114L167.1 161.13ZM169.449 160.091L168.201 160.92L166.136 160.091H169.449ZM166.629 160.867C166.626 160.869 166.624 160.872 166.621 160.874C166.62 160.871 166.619 160.867 166.618 160.864C166.622 160.865 166.625 160.866 166.629 160.867ZM167.047 160.726C167.041 160.726 167.035 160.725 167.028 160.726L167.029 160.718L167.047 160.726ZM170.096 159.979L170.057 159.987L170.104 159.956C170.102 159.963 170.098 159.971 170.096 159.979ZM164.126 159.887C164.126 159.891 164.128 159.895 164.128 159.899L163.941 159.888C163.942 159.885 163.942 159.882 163.942 159.88C163.998 159.885 164.059 159.889 164.126 159.887ZM171.797 159.756C171.793 159.754 171.789 159.752 171.785 159.75C171.783 159.744 171.781 159.739 171.779 159.734L171.797 159.756ZM162.81 158.455C162.806 158.457 162.802 158.459 162.797 158.462C162.797 158.459 162.797 158.455 162.797 158.452C162.801 158.453 162.805 158.454 162.81 158.455ZM169.23 157.843V158.322H163.266V157.843H169.23ZM163.465 157.593H163.314C163.319 157.588 163.323 157.583 163.326 157.577C163.369 157.583 163.415 157.588 163.465 157.593ZM168.907 156.383C168.908 156.386 168.908 156.389 168.908 156.392C168.621 156.389 168.375 156.387 168.195 156.384C168.179 156.383 168.164 156.383 168.148 156.383H168.907ZM169.481 156.31L169.48 156.307V156.067C169.483 156.147 169.483 156.236 169.481 156.31ZM169.23 155.652V156.133H163.266V155.652H169.23ZM74.0488 84.7275H74.043V73.2285H73.293C67.0253 73.2285 61.9319 78.2427 61.7988 84.4785H61.793V91.4785H61.918L61.793 91.4844C61.935 94.4537 62.2307 97.092 63.8965 99.4502C64.8794 100.841 66.3359 102.125 68.5029 103.328C68.5068 103.331 68.5089 103.334 68.5107 103.335C68.5135 103.336 68.5168 103.337 68.5195 103.338C70.0186 104.168 71.8562 104.96 74.1143 105.717L74.1045 105.741L88.2695 111.9L87.8242 111.804C88.0245 111.848 88.2207 111.901 88.4121 111.962L89.6318 112.492C91.2983 113.434 92.4518 115.073 92.793 116.936V119.246C92.7761 119.339 92.7574 119.433 92.7363 119.526L92.793 119.275V134.359L77.5938 125.228L77.5879 125.236C75.1766 123.773 74.4155 123.06 73.791 121.945V115.729H61.791V121.979C61.7577 125.492 62.5568 127.862 64.2021 129.858C65.8407 131.846 68.3135 133.455 71.6016 135.461L71.6152 135.438L86.1348 144.163L92.7451 148.294L92.7461 148.289C92.7476 148.291 92.7485 148.293 92.75 148.295L92.7471 148.3L94.4551 149.392C94.5339 149.458 94.6215 149.513 94.7158 149.559L104.58 155.865L104.771 155.988L104.814 148.262L104.783 148.261C104.784 148.249 104.784 148.238 104.782 148.229H104.793V111.946L104.816 111.945L104.799 111.695C104.797 111.675 104.795 111.654 104.793 111.634V111.229H104.754C104.337 107.688 102.049 104.781 98.96 103.435L98.9707 103.412L78.9727 94.7168L78.9736 94.7158C78.9652 94.7126 78.9567 94.7093 78.9482 94.7061L78.9102 94.6895L78.9092 94.6904C75.4501 93.3756 74.4478 92.6635 73.792 91.4785H73.793V84.7285H73.7988V87.2275H73.8008V86.9766C73.8008 85.7405 74.7976 84.7381 76.0312 84.7275H90.0703C91.2909 84.7379 92.2781 85.7194 92.2988 86.9375V90.9775H104.549V84.7275C104.549 78.3763 99.4001 73.2276 93.0488 73.2275H74.0488V84.7275ZM162.557 155.813C162.559 155.822 162.56 155.83 162.562 155.839C162.558 155.835 162.554 155.83 162.549 155.826C162.547 155.825 162.545 155.824 162.543 155.822C162.544 155.805 162.547 155.789 162.548 155.773C162.551 155.786 162.554 155.8 162.557 155.813ZM173.115 154.955L173.114 154.957C173.111 154.956 173.108 154.954 173.104 154.953C173.111 154.948 173.117 154.942 173.123 154.937C173.12 154.942 173.118 154.949 173.115 154.955ZM159.145 154.021C159.146 154.022 159.149 154.022 159.15 154.022V154.024L159.139 154.022L159.137 154.021L159.136 154.02C159.139 154.02 159.142 154.021 159.145 154.021ZM164.381 154.009C164.374 154.009 164.367 154.009 164.36 154.01C164.337 154.011 164.314 154.013 164.292 154.015C164.292 154.013 164.292 154.011 164.292 154.009H164.381ZM169.408 153.759H167.454V152.48H165.302V153.759H163.474L166.44 151.663L169.408 153.759ZM169.757 153.696C169.767 153.701 169.778 153.705 169.786 153.708C169.794 153.715 169.801 153.722 169.808 153.728C169.81 153.73 169.812 153.732 169.814 153.733C169.817 153.737 169.82 153.741 169.823 153.745L169.746 153.69C169.75 153.692 169.753 153.695 169.757 153.696ZM169.801 153.71C169.796 153.703 169.789 153.696 169.784 153.688C169.779 153.68 169.775 153.671 169.771 153.663V153.662C169.779 153.679 169.791 153.695 169.801 153.71ZM172.059 152.966C172.052 152.963 172.045 152.961 172.038 152.958L172.021 152.949C171.972 152.917 171.92 152.894 171.866 152.877C171.862 152.871 171.858 152.865 171.854 152.859C171.921 152.895 171.989 152.93 172.059 152.966ZM168.52 152.812C168.531 152.826 168.546 152.839 168.559 152.853L168.485 152.801C168.497 152.805 168.508 152.809 168.52 152.812ZM170.796 152.272C170.776 152.264 170.758 152.257 170.744 152.251C170.73 152.245 170.715 152.238 170.703 152.232C170.696 152.223 170.688 152.213 170.68 152.204C170.718 152.227 170.757 152.25 170.796 152.272ZM170.734 152.25C170.735 152.251 170.737 152.252 170.74 152.254L170.738 152.253L170.725 152.245C170.726 152.246 170.73 152.248 170.734 152.25ZM163.307 151.526C163.292 151.535 163.276 151.542 163.261 151.55C163.277 151.538 163.293 151.527 163.31 151.516C163.309 151.519 163.308 151.523 163.307 151.526ZM132.16 128.416L132.375 128.194L144.123 116.071L151.075 109.199L159.82 118.194L159.91 118.287L160 118.194L160.134 118.056C160.152 118.043 160.169 118.027 160.183 118.007V118.005L167.75 110.194L167.836 110.106L167.749 110.019L159.049 101.318L187.123 73.5713L187.34 73.3574H169.733L169.697 73.3936L167.977 75.1055C167.686 75.3429 167.418 75.62 167.172 75.9062L144.035 98.9316V73.2324H132.16V128.416ZM132.413 127.235C132.412 127.24 132.411 127.244 132.41 127.249V127.233C132.411 127.234 132.412 127.235 132.413 127.235ZM62.3604 122.736C62.3598 122.735 62.36 122.732 62.3594 122.73L62.3613 122.729C62.3612 122.732 62.3604 122.734 62.3604 122.736ZM159.018 117.009C159.067 117.051 159.105 117.092 159.135 117.131L159.011 117.004C159.013 117.006 159.015 117.007 159.018 117.009ZM143.157 116.708C143.157 116.707 143.156 116.706 143.155 116.705C143.169 116.693 143.182 116.681 143.195 116.669L143.157 116.708ZM152.818 110.396C152.818 110.397 152.817 110.397 152.817 110.398C152.816 110.397 152.815 110.395 152.814 110.393C152.816 110.393 152.817 110.395 152.818 110.396Z" fill="white"/>
</svg>
