<svg width="256" height="256" viewBox="0 0 256 256" fill="none" xmlns="http://www.w3.org/2000/svg">
<path d="M256 0H0V256H256V0Z" fill="black"/>
<path fill-rule="evenodd" clip-rule="evenodd" d="M182.855 122.62L172.964 132.511C184.148 134.849 192.563 144.993 192.563 157.153C192.563 171.043 181.583 182.303 168.039 182.303C154.495 182.303 143.515 171.043 143.515 157.153C143.515 149.656 146.714 142.926 151.788 138.318L175.171 114.935L182.855 122.62ZM168.289 142.514C160.55 142.514 154.276 149.068 154.276 157.153C154.276 165.239 160.55 171.793 168.289 171.793C176.029 171.793 182.303 165.239 182.303 157.153C182.303 149.068 176.029 142.514 168.289 142.514Z" fill="white"/>
<path d="M126.5 165.22C126.502 165.279 126.503 165.357 126.5 165.452V168.641L114.546 161.138L114.488 161.101V73.1965H126.5V165.22Z" fill="white"/>
<path d="M94.7185 73.1965C101.076 73.1965 106.23 78.3503 106.23 84.7077V90.9638H93.9677V86.9599C93.9677 85.7161 92.9594 84.7077 91.7155 84.7077H77.7019C76.458 84.7078 75.4497 85.7161 75.4497 86.9599V91.4643H75.4457C76.1022 92.6525 77.1052 93.3649 80.5714 94.6823L80.5726 94.6801L80.6239 94.7024C80.6279 94.7039 80.6319 94.7055 80.6359 94.707L80.6356 94.7075L100.653 103.411L100.643 103.433C103.734 104.781 106.023 107.691 106.441 111.234H106.48V111.635C106.482 111.658 106.484 111.681 106.486 111.703L106.503 111.953L106.48 111.955V148.27H106.476C106.478 148.28 106.479 148.291 106.477 148.304L106.501 148.304L106.458 156.038L96.3842 149.597C96.2989 149.555 96.2197 149.504 96.1471 149.445L94.422 148.342L94.4247 148.338C94.424 148.337 94.4232 148.336 94.4225 148.335V148.336L87.8397 144.222L73.2698 135.468L73.2573 135.489C69.9659 133.481 67.4903 131.871 65.8502 129.881C64.2032 127.883 63.4046 125.51 63.4379 121.994V115.738H75.4497V121.961C76.0746 123.076 76.8371 123.789 79.2493 125.254L79.2534 125.247L94.4682 134.389V119.308L94.4157 119.541C94.4352 119.454 94.4523 119.368 94.4682 119.282V116.929C94.124 115.08 92.9803 113.454 91.3299 112.512L90.054 111.957C89.8701 111.9 89.682 111.85 89.49 111.808L89.9304 111.903L75.7622 105.743L75.7732 105.718C70.2299 103.861 67.209 101.802 65.543 99.4436C63.8756 97.0831 63.5803 94.4424 63.4382 91.4702L63.5594 91.4643H63.4379V84.4575H63.4409C63.574 78.2156 68.6754 73.1965 74.9492 73.1965H94.7185Z" fill="white"/>
<path d="M145.768 98.9208L168.914 75.8871C169.167 75.5905 169.445 75.3031 169.746 75.0587L171.492 73.3216H189.115L160.796 101.311L169.592 110.106L169.506 110.195L161.927 118.018C161.914 118.038 161.897 118.054 161.88 118.067L161.659 118.295L152.816 109.199L145.856 116.077L133.882 128.434V73.1965H145.768V98.9208Z" fill="white"/>
<path d="M256 0H0V256H256V0Z" fill="black"/>
<path fill-rule="evenodd" clip-rule="evenodd" d="M182.855 122.62L172.964 132.511C184.148 134.849 192.563 144.993 192.563 157.153C192.563 171.043 181.583 182.303 168.039 182.303C154.495 182.303 143.515 171.043 143.515 157.153C143.515 149.656 146.714 142.926 151.788 138.318L175.171 114.935L182.855 122.62ZM168.289 142.514C160.55 142.514 154.276 149.068 154.276 157.153C154.276 165.239 160.55 171.793 168.289 171.793C176.029 171.793 182.303 165.239 182.303 157.153C182.303 149.068 176.029 142.514 168.289 142.514Z" fill="white"/>
<path d="M126.5 165.22C126.502 165.279 126.503 165.357 126.5 165.452V168.641L114.546 161.138L114.488 161.101V73.1965H126.5V165.22Z" fill="white"/>
<path d="M94.7185 73.1965C101.076 73.1965 106.23 78.3503 106.23 84.7077V90.9638H93.9677V86.9599C93.9677 85.7161 92.9594 84.7077 91.7155 84.7077H77.7019C76.458 84.7078 75.4497 85.7161 75.4497 86.9599V91.4643H75.4457C76.1022 92.6525 77.1052 93.3649 80.5714 94.6823L80.5726 94.6801L80.6239 94.7024C80.6279 94.7039 80.6319 94.7055 80.6359 94.707L80.6356 94.7075L100.653 103.411L100.643 103.433C103.734 104.781 106.023 107.691 106.441 111.234H106.48V111.635C106.482 111.658 106.484 111.681 106.486 111.703L106.503 111.953L106.48 111.955V148.27H106.476C106.478 148.28 106.479 148.291 106.477 148.304L106.501 148.304L106.458 156.038L96.3842 149.597C96.2989 149.555 96.2197 149.504 96.1471 149.445L94.422 148.342L94.4247 148.338C94.424 148.337 94.4232 148.336 94.4225 148.335V148.336L87.8397 144.222L73.2698 135.468L73.2573 135.489C69.9659 133.481 67.4903 131.871 65.8502 129.881C64.2032 127.883 63.4046 125.51 63.4379 121.994V115.738H75.4497V121.961C76.0746 123.076 76.8371 123.789 79.2493 125.254L79.2534 125.247L94.4682 134.389V119.308L94.4157 119.541C94.4352 119.454 94.4523 119.368 94.4682 119.282V116.929C94.124 115.08 92.9803 113.454 91.3299 112.512L90.054 111.957C89.8701 111.9 89.682 111.85 89.49 111.808L89.9304 111.903L75.7622 105.743L75.7732 105.718C70.2299 103.861 67.209 101.802 65.543 99.4436C63.8756 97.0831 63.5803 94.4424 63.4382 91.4702L63.5594 91.4643H63.4379V84.4575H63.4409C63.574 78.2156 68.6754 73.1965 74.9492 73.1965H94.7185Z" fill="white"/>
<path d="M145.768 98.9208L168.914 75.8871C169.167 75.5905 169.445 75.3031 169.746 75.0587L171.492 73.3216H189.115L160.796 101.311L169.592 110.106L169.506 110.195L161.927 118.018C161.914 118.038 161.897 118.054 161.88 118.067L161.659 118.295L152.816 109.199L145.856 116.077L133.882 128.434V73.1965H145.768V98.9208Z" fill="white"/>
<path fill-rule="evenodd" clip-rule="evenodd" d="M168.891 149.284C170.97 151.289 172.489 152.206 175.578 153.64L175.578 153.64C175.631 153.665 175.661 153.724 175.648 153.784C175.647 153.791 175.644 153.799 175.641 153.806L175.642 153.806L174.894 155.567L174.776 155.516L173.116 154.802V159.065L174.102 160.308L174.195 160.424L172.077 161.643L174.413 162.563L173.871 164.319L173.831 164.449L168.042 162.275V163.468L162.963 164.734L161.987 162.794L162.523 162.28V155.092L161.194 155.556L160.256 153.757L160.378 153.701C163.21 152.392 164.723 151.489 167.195 149.281L167.196 149.282C167.201 149.277 167.206 149.273 167.212 149.27C167.233 149.256 167.257 149.249 167.28 149.248L168.854 149.248L168.891 149.284ZM164.808 161.996L166.16 161.727L165.086 161.11L165.528 160.14L164.808 160.097V161.996ZM169.739 160.913L170.978 160.09H167.689L169.739 160.913ZM164.808 158.312H170.767V157.839H164.808V158.312ZM164.808 156.123H170.767V155.649H164.808V156.123ZM165.021 153.75H166.835V152.472H168.994V153.75H170.935L167.978 151.662L165.021 153.75Z" fill="white"/>
</svg>
