<svg width="256" height="256" viewBox="0 0 256 256" fill="none" xmlns="http://www.w3.org/2000/svg">
<path d="M256 0H0V256H256V0Z" fill="white"/>
<path fill-rule="evenodd" clip-rule="evenodd" d="M182.855 122.62L172.964 132.511C184.148 134.849 192.563 144.993 192.563 157.153C192.563 171.043 181.583 182.303 168.039 182.303C154.495 182.303 143.515 171.043 143.515 157.153C143.515 149.656 146.714 142.926 151.788 138.318L175.171 114.935L182.855 122.62ZM168.289 142.514C160.55 142.514 154.276 149.068 154.276 157.153C154.276 165.239 160.55 171.793 168.289 171.793C176.029 171.793 182.303 165.239 182.303 157.153C182.303 149.068 176.029 142.514 168.289 142.514Z" fill="black"/>
<path d="M126.499 165.22C126.502 165.279 126.503 165.357 126.499 165.452V168.641L114.546 161.138L114.488 161.101V73.1965H126.499V165.22Z" fill="black"/>
<path d="M94.7185 73.1965C101.076 73.1965 106.23 78.3503 106.23 84.7077V90.9638H93.9677V86.9599C93.9677 85.7161 92.9594 84.7077 91.7155 84.7077H77.7018C76.458 84.7078 75.4496 85.7161 75.4496 86.9599V91.4643H75.4457C76.1022 92.6525 77.1052 93.3649 80.5713 94.6823L80.5726 94.6801L80.6239 94.7024C80.6278 94.7039 80.6319 94.7055 80.6358 94.707L80.6356 94.7075L100.653 103.411L100.643 103.433C103.734 104.781 106.023 107.691 106.441 111.234H106.48V111.635C106.482 111.658 106.484 111.681 106.486 111.703L106.503 111.953L106.48 111.955V148.27H106.476C106.478 148.28 106.479 148.291 106.477 148.304L106.501 148.304L106.458 156.038L96.3841 149.597C96.2989 149.555 96.2196 149.504 96.1471 149.445L94.422 148.342L94.4247 148.338C94.424 148.337 94.4232 148.336 94.4225 148.335V148.336L87.8397 144.222L73.2698 135.468L73.2573 135.489C69.9659 133.481 67.4903 131.871 65.8502 129.881C64.2032 127.883 63.4045 125.51 63.4379 121.994V115.738H75.4496V121.961C76.0746 123.076 76.8371 123.789 79.2492 125.254L79.2534 125.247L94.4682 134.389V119.308L94.4157 119.541C94.4352 119.454 94.4523 119.368 94.4682 119.282V116.929C94.124 115.08 92.9803 113.454 91.3299 112.512L90.054 111.957C89.87 111.9 89.682 111.85 89.49 111.808L89.9303 111.903L75.7622 105.743L75.7732 105.718C70.2299 103.861 67.2089 101.802 65.543 99.4436C63.8755 97.0831 63.5803 94.4424 63.4381 91.4702L63.5594 91.4643H63.4379V84.4575H63.4408C63.574 78.2156 68.6753 73.1965 74.9491 73.1965H94.7185Z" fill="black"/>
<path d="M145.768 98.9208L168.913 75.8871C169.167 75.5905 169.445 75.3031 169.746 75.0587L171.492 73.3216H189.115L160.796 101.311L169.592 110.106L169.506 110.195L161.927 118.018C161.913 118.038 161.897 118.054 161.88 118.067L161.659 118.295L152.815 109.199L145.856 116.077L133.882 128.434V73.1965H145.768V98.9208Z" fill="black"/>
<path fill-rule="evenodd" clip-rule="evenodd" d="M169.147 150.052C171.226 152.057 172.745 152.974 175.834 154.408L175.834 154.408C175.887 154.433 175.917 154.492 175.904 154.552C175.903 154.559 175.9 154.567 175.897 154.574L175.898 154.574L175.15 156.335L175.032 156.284L173.372 155.57V159.833L174.358 161.076L174.451 161.192L172.333 162.411L174.669 163.331L174.127 165.087L174.087 165.217L168.298 163.043V164.236L163.219 165.502L162.243 163.562L162.779 163.048V155.86L161.45 156.324L160.512 154.525L160.634 154.469C163.466 153.16 164.979 152.257 167.451 150.049L167.452 150.05C167.457 150.045 167.462 150.041 167.468 150.038C167.489 150.024 167.513 150.017 167.536 150.016L169.11 150.016L169.147 150.052ZM165.064 162.764L166.416 162.495L165.342 161.878L165.784 160.908L165.064 160.865V162.764ZM169.995 161.681L171.234 160.858H167.945L169.995 161.681ZM165.064 159.081H171.023V158.607H165.064V159.081ZM165.064 156.891H171.023V156.417H165.064V156.891ZM165.277 154.518H167.091V153.24H169.25V154.518H171.191L168.234 152.43L165.277 154.518Z" fill="black"/>
</svg>
